<svg width="138" height="135" viewBox="0 0 138 135" fill="none" xmlns="http://www.w3.org/2000/svg">
<path d="M72.6371 16.6328C75.4515 13.8184 80.0145 13.8184 82.8289 16.6328L135.861 69.6651C138.676 72.4795 138.676 77.0425 135.861 79.8569L82.8289 132.889C80.0145 135.704 75.4515 135.704 72.6371 132.889L19.6047 79.8569C16.7904 77.0425 16.7904 72.4795 19.6047 69.6651L72.6371 16.6328Z" fill="#E27410"/>
<path opacity="0.3" d="M63.8674 9.11239C66.6943 6.28545 71.2777 6.28545 74.1046 9.11239L127.374 62.3815C130.201 65.2085 130.201 69.7918 127.374 72.6188L74.1046 125.888C71.2777 128.715 66.6943 128.715 63.8674 125.888L10.5982 72.6188C7.77129 69.7918 7.77129 65.2085 10.5982 62.3815L63.8674 9.11239Z" fill="#E27410"/>
<path opacity="0.15" d="M55.1432 2.11078C57.9575 -0.703592 62.5205 -0.703594 65.3349 2.11078L118.367 55.1432C121.182 57.9575 121.182 62.5205 118.367 65.3349L65.3349 118.367C62.5205 121.182 57.9575 121.182 55.1432 118.367L2.11078 65.3349C-0.703592 62.5205 -0.703594 57.9575 2.11078 55.1432L55.1432 2.11078Z" fill="#E27410"/>
</svg>
