<svg width="24" height="24" viewBox="0 0 24 24" fill="none" xmlns="http://www.w3.org/2000/svg">
<circle cx="12" cy="12" r="11.5" fill="white" stroke="#E27410"/>
<path d="M12 19.625C11.9129 19.625 11.8259 19.6023 11.748 19.5569C11.4929 19.408 5.5 15.8576 5.5 11.125C5.5 7.54075 8.41575 4.625 12 4.625C15.5842 4.625 18.5 7.54075 18.5 11.125C18.5 15.8576 12.5071 19.408 12.252 19.5569C12.1741 19.6023 12.0871 19.625 12 19.625ZM12 5.625C8.96725 5.625 6.5 8.09225 6.5 11.125C6.5 14.7751 10.8899 17.824 12 18.5364C13.1101 17.824 17.5 14.7751 17.5 11.125C17.5 8.09225 15.0328 5.625 12 5.625ZM12 14.125C10.3457 14.125 9 12.7793 9 11.125C9 9.47075 10.3457 8.125 12 8.125C13.6543 8.125 15 9.47075 15 11.125C15 12.7793 13.6543 14.125 12 14.125ZM12 9.125C10.8973 9.125 10 10.0223 10 11.125C10 12.2277 10.8973 13.125 12 13.125C13.1027 13.125 14 12.2277 14 11.125C14 10.0223 13.1027 9.125 12 9.125Z" fill="#E27410"/>
</svg>
